<mxfile host="Electron" modified="2024-12-05T06:29:33.895Z" agent="Mozilla/5.0 (Windows NT 10.0; Win64; x64) AppleWebKit/537.36 (KHTML, like Gecko) draw.io/24.1.0 Chrome/120.0.6099.109 Electron/28.1.0 Safari/537.36" etag="fE9ndtJNfAcUbqWjkk-A" version="24.1.0" type="device">
  <diagram id="C5RBs43oDa-KdzZeNtuy" name="Page-1">
    <mxGraphModel dx="1696" dy="2122" grid="1" gridSize="10" guides="1" tooltips="1" connect="1" arrows="1" fold="1" page="1" pageScale="1" pageWidth="827" pageHeight="1169" math="0" shadow="0">
      <root>
        <mxCell id="WIyWlLk6GJQsqaUBKTNV-0" />
        <mxCell id="WIyWlLk6GJQsqaUBKTNV-1" parent="WIyWlLk6GJQsqaUBKTNV-0" />
        <mxCell id="iLJZ3fYTkz0WtOFPtGQ--0" value="Shows" style="swimlane;fontStyle=0;childLayout=stackLayout;horizontal=1;startSize=30;horizontalStack=0;resizeParent=1;resizeParentMax=0;resizeLast=0;collapsible=1;marginBottom=0;whiteSpace=wrap;html=1;fillColor=#ffcc99;strokeColor=#67AB9F;fontColor=#331A00;" vertex="1" parent="WIyWlLk6GJQsqaUBKTNV-1">
          <mxGeometry x="-280" y="-1065" width="180" height="300" as="geometry" />
        </mxCell>
        <mxCell id="iLJZ3fYTkz0WtOFPtGQ--1" value="PK ShowId" style="text;strokeColor=#67AB9F;fillColor=#ffcc99;align=left;verticalAlign=middle;spacingLeft=4;spacingRight=4;overflow=hidden;points=[[0,0.5],[1,0.5]];portConstraint=eastwest;rotatable=0;whiteSpace=wrap;html=1;labelBackgroundColor=none;fontColor=#331A00;" vertex="1" parent="iLJZ3fYTkz0WtOFPtGQ--0">
          <mxGeometry y="30" width="180" height="30" as="geometry" />
        </mxCell>
        <mxCell id="iLJZ3fYTkz0WtOFPtGQ--2" value="Type" style="text;strokeColor=#67AB9F;fillColor=#ffcc99;align=left;verticalAlign=middle;spacingLeft=4;spacingRight=4;overflow=hidden;points=[[0,0.5],[1,0.5]];portConstraint=eastwest;rotatable=0;whiteSpace=wrap;html=1;labelBackgroundColor=none;fontColor=#331A00;" vertex="1" parent="iLJZ3fYTkz0WtOFPtGQ--0">
          <mxGeometry y="60" width="180" height="30" as="geometry" />
        </mxCell>
        <mxCell id="iLJZ3fYTkz0WtOFPtGQ--3" value="Title" style="text;strokeColor=#67AB9F;fillColor=#ffcc99;align=left;verticalAlign=middle;spacingLeft=4;spacingRight=4;overflow=hidden;points=[[0,0.5],[1,0.5]];portConstraint=eastwest;rotatable=0;whiteSpace=wrap;html=1;labelBackgroundColor=none;fontColor=#331A00;" vertex="1" parent="iLJZ3fYTkz0WtOFPtGQ--0">
          <mxGeometry y="90" width="180" height="30" as="geometry" />
        </mxCell>
        <mxCell id="iLJZ3fYTkz0WtOFPtGQ--4" value="Country" style="text;strokeColor=#67AB9F;fillColor=#ffcc99;align=left;verticalAlign=middle;spacingLeft=4;spacingRight=4;overflow=hidden;points=[[0,0.5],[1,0.5]];portConstraint=eastwest;rotatable=0;whiteSpace=wrap;html=1;labelBackgroundColor=none;fontColor=#331A00;" vertex="1" parent="iLJZ3fYTkz0WtOFPtGQ--0">
          <mxGeometry y="120" width="180" height="30" as="geometry" />
        </mxCell>
        <mxCell id="iLJZ3fYTkz0WtOFPtGQ--5" value="DateAdded" style="text;strokeColor=#67AB9F;fillColor=#ffcc99;align=left;verticalAlign=middle;spacingLeft=4;spacingRight=4;overflow=hidden;points=[[0,0.5],[1,0.5]];portConstraint=eastwest;rotatable=0;whiteSpace=wrap;html=1;labelBackgroundColor=none;fontColor=#331A00;" vertex="1" parent="iLJZ3fYTkz0WtOFPtGQ--0">
          <mxGeometry y="150" width="180" height="30" as="geometry" />
        </mxCell>
        <mxCell id="iLJZ3fYTkz0WtOFPtGQ--6" value="ReleaseYear" style="text;strokeColor=#67AB9F;fillColor=#ffcc99;align=left;verticalAlign=middle;spacingLeft=4;spacingRight=4;overflow=hidden;points=[[0,0.5],[1,0.5]];portConstraint=eastwest;rotatable=0;whiteSpace=wrap;html=1;labelBackgroundColor=none;fontColor=#331A00;" vertex="1" parent="iLJZ3fYTkz0WtOFPtGQ--0">
          <mxGeometry y="180" width="180" height="30" as="geometry" />
        </mxCell>
        <mxCell id="iLJZ3fYTkz0WtOFPtGQ--7" value="Rating" style="text;strokeColor=#67AB9F;fillColor=#ffcc99;align=left;verticalAlign=middle;spacingLeft=4;spacingRight=4;overflow=hidden;points=[[0,0.5],[1,0.5]];portConstraint=eastwest;rotatable=0;whiteSpace=wrap;html=1;labelBackgroundColor=none;fontColor=#331A00;" vertex="1" parent="iLJZ3fYTkz0WtOFPtGQ--0">
          <mxGeometry y="210" width="180" height="30" as="geometry" />
        </mxCell>
        <mxCell id="iLJZ3fYTkz0WtOFPtGQ--84" value="Duration" style="text;strokeColor=#67AB9F;fillColor=#ffcc99;align=left;verticalAlign=middle;spacingLeft=4;spacingRight=4;overflow=hidden;points=[[0,0.5],[1,0.5]];portConstraint=eastwest;rotatable=0;whiteSpace=wrap;html=1;labelBackgroundColor=none;fontColor=#331A00;" vertex="1" parent="iLJZ3fYTkz0WtOFPtGQ--0">
          <mxGeometry y="240" width="180" height="30" as="geometry" />
        </mxCell>
        <mxCell id="iLJZ3fYTkz0WtOFPtGQ--85" value="Description" style="text;strokeColor=#67AB9F;fillColor=#ffcc99;align=left;verticalAlign=middle;spacingLeft=4;spacingRight=4;overflow=hidden;points=[[0,0.5],[1,0.5]];portConstraint=eastwest;rotatable=0;whiteSpace=wrap;html=1;labelBackgroundColor=none;fontColor=#331A00;" vertex="1" parent="iLJZ3fYTkz0WtOFPtGQ--0">
          <mxGeometry y="270" width="180" height="30" as="geometry" />
        </mxCell>
        <mxCell id="iLJZ3fYTkz0WtOFPtGQ--39" value="Directors" style="swimlane;fontStyle=0;childLayout=stackLayout;horizontal=1;startSize=30;horizontalStack=0;resizeParent=1;resizeParentMax=0;resizeLast=0;collapsible=1;marginBottom=0;whiteSpace=wrap;html=1;fillColor=#ffcc99;strokeColor=#67AB9F;fontColor=#331A00;" vertex="1" parent="WIyWlLk6GJQsqaUBKTNV-1">
          <mxGeometry x="-800" y="-1120" width="160" height="90" as="geometry" />
        </mxCell>
        <mxCell id="iLJZ3fYTkz0WtOFPtGQ--40" value="PK DirectorId" style="text;strokeColor=#67AB9F;fillColor=#ffcc99;align=left;verticalAlign=middle;spacingLeft=4;spacingRight=4;overflow=hidden;points=[[0,0.5],[1,0.5]];portConstraint=eastwest;rotatable=0;whiteSpace=wrap;html=1;fontColor=#331A00;" vertex="1" parent="iLJZ3fYTkz0WtOFPtGQ--39">
          <mxGeometry y="30" width="160" height="30" as="geometry" />
        </mxCell>
        <mxCell id="iLJZ3fYTkz0WtOFPtGQ--41" value="DirectorName" style="text;strokeColor=#67AB9F;fillColor=#ffcc99;align=left;verticalAlign=middle;spacingLeft=4;spacingRight=4;overflow=hidden;points=[[0,0.5],[1,0.5]];portConstraint=eastwest;rotatable=0;whiteSpace=wrap;html=1;fontColor=#331A00;" vertex="1" parent="iLJZ3fYTkz0WtOFPtGQ--39">
          <mxGeometry y="60" width="160" height="30" as="geometry" />
        </mxCell>
        <mxCell id="iLJZ3fYTkz0WtOFPtGQ--45" value="ShowsDirectors" style="swimlane;fontStyle=0;childLayout=stackLayout;horizontal=1;startSize=30;horizontalStack=0;resizeParent=1;resizeParentMax=0;resizeLast=0;collapsible=1;marginBottom=0;whiteSpace=wrap;html=1;fillColor=#ffcc99;strokeColor=#67AB9F;fontColor=#331A00;" vertex="1" parent="WIyWlLk6GJQsqaUBKTNV-1">
          <mxGeometry x="-560" y="-1120" width="160" height="90" as="geometry" />
        </mxCell>
        <mxCell id="iLJZ3fYTkz0WtOFPtGQ--46" value="&lt;div style=&quot;text-align: center;&quot;&gt;&lt;span style=&quot;background-color: initial;&quot;&gt;FK ShowId&amp;nbsp;&lt;/span&gt;&lt;span style=&quot;background-color: initial;&quot;&gt;NOT NULL&lt;/span&gt;&lt;/div&gt;" style="text;strokeColor=#67AB9F;fillColor=#ffcc99;align=left;verticalAlign=middle;spacingLeft=4;spacingRight=4;overflow=hidden;points=[[0,0.5],[1,0.5]];portConstraint=eastwest;rotatable=0;whiteSpace=wrap;html=1;fontColor=#331A00;" vertex="1" parent="iLJZ3fYTkz0WtOFPtGQ--45">
          <mxGeometry y="30" width="160" height="30" as="geometry" />
        </mxCell>
        <mxCell id="iLJZ3fYTkz0WtOFPtGQ--47" value="FK&amp;nbsp;&lt;span style=&quot;text-align: center;&quot;&gt;Director&lt;/span&gt;Id&amp;nbsp;NOT NULL" style="text;strokeColor=#67AB9F;fillColor=#ffcc99;align=left;verticalAlign=middle;spacingLeft=4;spacingRight=4;overflow=hidden;points=[[0,0.5],[1,0.5]];portConstraint=eastwest;rotatable=0;whiteSpace=wrap;html=1;fontColor=#331A00;" vertex="1" parent="iLJZ3fYTkz0WtOFPtGQ--45">
          <mxGeometry y="60" width="160" height="30" as="geometry" />
        </mxCell>
        <mxCell id="iLJZ3fYTkz0WtOFPtGQ--70" value="ShowsCasts" style="swimlane;fontStyle=0;childLayout=stackLayout;horizontal=1;startSize=30;horizontalStack=0;resizeParent=1;resizeParentMax=0;resizeLast=0;collapsible=1;marginBottom=0;whiteSpace=wrap;html=1;fillColor=#ffcc99;strokeColor=#67AB9F;fontColor=#331A00;" vertex="1" parent="WIyWlLk6GJQsqaUBKTNV-1">
          <mxGeometry x="-560" y="-800" width="160" height="90" as="geometry" />
        </mxCell>
        <mxCell id="iLJZ3fYTkz0WtOFPtGQ--71" value="&lt;div style=&quot;text-align: center;&quot;&gt;&lt;span style=&quot;background-color: initial;&quot;&gt;FK Show&lt;/span&gt;&lt;span style=&quot;background-color: initial;&quot;&gt;Id NOT NULL&lt;/span&gt;&lt;/div&gt;" style="text;strokeColor=#67AB9F;fillColor=#ffcc99;align=left;verticalAlign=middle;spacingLeft=4;spacingRight=4;overflow=hidden;points=[[0,0.5],[1,0.5]];portConstraint=eastwest;rotatable=0;whiteSpace=wrap;html=1;fontColor=#331A00;" vertex="1" parent="iLJZ3fYTkz0WtOFPtGQ--70">
          <mxGeometry y="30" width="160" height="30" as="geometry" />
        </mxCell>
        <mxCell id="iLJZ3fYTkz0WtOFPtGQ--72" value="FK CastId NOT NULL" style="text;strokeColor=#67AB9F;fillColor=#ffcc99;align=left;verticalAlign=middle;spacingLeft=4;spacingRight=4;overflow=hidden;points=[[0,0.5],[1,0.5]];portConstraint=eastwest;rotatable=0;whiteSpace=wrap;html=1;fontColor=#331A00;" vertex="1" parent="iLJZ3fYTkz0WtOFPtGQ--70">
          <mxGeometry y="60" width="160" height="30" as="geometry" />
        </mxCell>
        <mxCell id="iLJZ3fYTkz0WtOFPtGQ--73" value="Casts" style="swimlane;fontStyle=0;childLayout=stackLayout;horizontal=1;startSize=30;horizontalStack=0;resizeParent=1;resizeParentMax=0;resizeLast=0;collapsible=1;marginBottom=0;whiteSpace=wrap;html=1;fillColor=#ffcc99;strokeColor=#67AB9F;fontColor=#331A00;" vertex="1" parent="WIyWlLk6GJQsqaUBKTNV-1">
          <mxGeometry x="-800" y="-960" width="160" height="90" as="geometry" />
        </mxCell>
        <mxCell id="iLJZ3fYTkz0WtOFPtGQ--74" value="PK CastId" style="text;strokeColor=#67AB9F;fillColor=#ffcc99;align=left;verticalAlign=middle;spacingLeft=4;spacingRight=4;overflow=hidden;points=[[0,0.5],[1,0.5]];portConstraint=eastwest;rotatable=0;whiteSpace=wrap;html=1;fontColor=#331A00;" vertex="1" parent="iLJZ3fYTkz0WtOFPtGQ--73">
          <mxGeometry y="30" width="160" height="30" as="geometry" />
        </mxCell>
        <mxCell id="iLJZ3fYTkz0WtOFPtGQ--75" value="CastName" style="text;strokeColor=#67AB9F;fillColor=#ffcc99;align=left;verticalAlign=middle;spacingLeft=4;spacingRight=4;overflow=hidden;points=[[0,0.5],[1,0.5]];portConstraint=eastwest;rotatable=0;whiteSpace=wrap;html=1;fontColor=#331A00;" vertex="1" parent="iLJZ3fYTkz0WtOFPtGQ--73">
          <mxGeometry y="60" width="160" height="30" as="geometry" />
        </mxCell>
        <mxCell id="iLJZ3fYTkz0WtOFPtGQ--86" value="ListedIns" style="swimlane;fontStyle=0;childLayout=stackLayout;horizontal=1;startSize=30;horizontalStack=0;resizeParent=1;resizeParentMax=0;resizeLast=0;collapsible=1;marginBottom=0;whiteSpace=wrap;html=1;fillColor=#ffcc99;strokeColor=#67AB9F;fontColor=#331A00;" vertex="1" parent="WIyWlLk6GJQsqaUBKTNV-1">
          <mxGeometry x="-800" y="-800" width="160" height="90" as="geometry" />
        </mxCell>
        <mxCell id="iLJZ3fYTkz0WtOFPtGQ--87" value="PK ListedInId" style="text;strokeColor=#67AB9F;fillColor=#ffcc99;align=left;verticalAlign=middle;spacingLeft=4;spacingRight=4;overflow=hidden;points=[[0,0.5],[1,0.5]];portConstraint=eastwest;rotatable=0;whiteSpace=wrap;html=1;fontColor=#331A00;" vertex="1" parent="iLJZ3fYTkz0WtOFPtGQ--86">
          <mxGeometry y="30" width="160" height="30" as="geometry" />
        </mxCell>
        <mxCell id="iLJZ3fYTkz0WtOFPtGQ--88" value="ListedInName" style="text;strokeColor=#67AB9F;fillColor=#ffcc99;align=left;verticalAlign=middle;spacingLeft=4;spacingRight=4;overflow=hidden;points=[[0,0.5],[1,0.5]];portConstraint=eastwest;rotatable=0;whiteSpace=wrap;html=1;fontColor=#331A00;" vertex="1" parent="iLJZ3fYTkz0WtOFPtGQ--86">
          <mxGeometry y="60" width="160" height="30" as="geometry" />
        </mxCell>
        <mxCell id="iLJZ3fYTkz0WtOFPtGQ--89" value="ShowsListedIns" style="swimlane;fontStyle=0;childLayout=stackLayout;horizontal=1;startSize=30;horizontalStack=0;resizeParent=1;resizeParentMax=0;resizeLast=0;collapsible=1;marginBottom=0;whiteSpace=wrap;html=1;fillColor=#ffcc99;strokeColor=#67AB9F;fontColor=#331A00;" vertex="1" parent="WIyWlLk6GJQsqaUBKTNV-1">
          <mxGeometry x="-560" y="-960" width="160" height="90" as="geometry" />
        </mxCell>
        <mxCell id="iLJZ3fYTkz0WtOFPtGQ--90" value="&lt;div style=&quot;text-align: center;&quot;&gt;&lt;span style=&quot;background-color: initial;&quot;&gt;FK Show&lt;/span&gt;&lt;span style=&quot;background-color: initial;&quot;&gt;Id NOT NULL&lt;/span&gt;&lt;/div&gt;" style="text;strokeColor=#67AB9F;fillColor=#ffcc99;align=left;verticalAlign=middle;spacingLeft=4;spacingRight=4;overflow=hidden;points=[[0,0.5],[1,0.5]];portConstraint=eastwest;rotatable=0;whiteSpace=wrap;html=1;fontColor=#331A00;" vertex="1" parent="iLJZ3fYTkz0WtOFPtGQ--89">
          <mxGeometry y="30" width="160" height="30" as="geometry" />
        </mxCell>
        <mxCell id="iLJZ3fYTkz0WtOFPtGQ--91" value="FK ListedInId NOT NULL" style="text;strokeColor=#67AB9F;fillColor=#ffcc99;align=left;verticalAlign=middle;spacingLeft=4;spacingRight=4;overflow=hidden;points=[[0,0.5],[1,0.5]];portConstraint=eastwest;rotatable=0;whiteSpace=wrap;html=1;fontColor=#331A00;" vertex="1" parent="iLJZ3fYTkz0WtOFPtGQ--89">
          <mxGeometry y="60" width="160" height="30" as="geometry" />
        </mxCell>
        <mxCell id="iLJZ3fYTkz0WtOFPtGQ--92" value="" style="edgeStyle=entityRelationEdgeStyle;fontSize=12;html=1;endArrow=ERoneToMany;startArrow=ERzeroToOne;rounded=0;entryX=-0.019;entryY=0.062;entryDx=0;entryDy=0;entryPerimeter=0;exitX=1;exitY=0.5;exitDx=0;exitDy=0;" edge="1" parent="WIyWlLk6GJQsqaUBKTNV-1" source="iLJZ3fYTkz0WtOFPtGQ--46" target="iLJZ3fYTkz0WtOFPtGQ--0">
          <mxGeometry width="100" height="100" relative="1" as="geometry">
            <mxPoint x="-480" y="-680" as="sourcePoint" />
            <mxPoint x="-380" y="-780" as="targetPoint" />
          </mxGeometry>
        </mxCell>
        <mxCell id="iLJZ3fYTkz0WtOFPtGQ--93" value="" style="edgeStyle=entityRelationEdgeStyle;fontSize=12;html=1;endArrow=ERoneToMany;startArrow=ERzeroToOne;rounded=0;entryX=0;entryY=0.5;entryDx=0;entryDy=0;exitX=1;exitY=0.5;exitDx=0;exitDy=0;" edge="1" parent="WIyWlLk6GJQsqaUBKTNV-1" source="iLJZ3fYTkz0WtOFPtGQ--89" target="iLJZ3fYTkz0WtOFPtGQ--0">
          <mxGeometry width="100" height="100" relative="1" as="geometry">
            <mxPoint x="-400" y="-980" as="sourcePoint" />
            <mxPoint x="-283" y="-929" as="targetPoint" />
          </mxGeometry>
        </mxCell>
        <mxCell id="iLJZ3fYTkz0WtOFPtGQ--94" value="" style="edgeStyle=entityRelationEdgeStyle;fontSize=12;html=1;endArrow=ERoneToMany;startArrow=ERzeroToOne;rounded=0;exitX=1;exitY=0.5;exitDx=0;exitDy=0;" edge="1" parent="WIyWlLk6GJQsqaUBKTNV-1" source="iLJZ3fYTkz0WtOFPtGQ--70">
          <mxGeometry width="100" height="100" relative="1" as="geometry">
            <mxPoint x="-370" y="-710" as="sourcePoint" />
            <mxPoint x="-280" y="-780" as="targetPoint" />
          </mxGeometry>
        </mxCell>
        <mxCell id="iLJZ3fYTkz0WtOFPtGQ--100" value="" style="edgeStyle=entityRelationEdgeStyle;fontSize=12;html=1;endArrow=ERzeroToOne;startArrow=ERoneToMany;rounded=0;entryX=0;entryY=0.5;entryDx=0;entryDy=0;exitX=1;exitY=0.5;exitDx=0;exitDy=0;" edge="1" parent="WIyWlLk6GJQsqaUBKTNV-1" source="iLJZ3fYTkz0WtOFPtGQ--87" target="iLJZ3fYTkz0WtOFPtGQ--71">
          <mxGeometry width="100" height="100" relative="1" as="geometry">
            <mxPoint x="-670" y="-660" as="sourcePoint" />
            <mxPoint x="-553" y="-631" as="targetPoint" />
          </mxGeometry>
        </mxCell>
        <mxCell id="iLJZ3fYTkz0WtOFPtGQ--101" value="" style="edgeStyle=entityRelationEdgeStyle;fontSize=12;html=1;endArrow=ERzeroToOne;startArrow=ERoneToMany;rounded=0;entryX=0;entryY=0.5;entryDx=0;entryDy=0;exitX=1;exitY=0.5;exitDx=0;exitDy=0;" edge="1" parent="WIyWlLk6GJQsqaUBKTNV-1" source="iLJZ3fYTkz0WtOFPtGQ--74" target="iLJZ3fYTkz0WtOFPtGQ--90">
          <mxGeometry width="100" height="100" relative="1" as="geometry">
            <mxPoint x="-640" y="-900" as="sourcePoint" />
            <mxPoint x="-560" y="-900" as="targetPoint" />
          </mxGeometry>
        </mxCell>
        <mxCell id="iLJZ3fYTkz0WtOFPtGQ--102" value="" style="edgeStyle=entityRelationEdgeStyle;fontSize=12;html=1;endArrow=ERzeroToOne;startArrow=ERoneToMany;rounded=0;entryX=0;entryY=0.5;entryDx=0;entryDy=0;exitX=1;exitY=0.5;exitDx=0;exitDy=0;" edge="1" parent="WIyWlLk6GJQsqaUBKTNV-1" source="iLJZ3fYTkz0WtOFPtGQ--40" target="iLJZ3fYTkz0WtOFPtGQ--46">
          <mxGeometry width="100" height="100" relative="1" as="geometry">
            <mxPoint x="-640" y="-1000" as="sourcePoint" />
            <mxPoint x="-560" y="-1000" as="targetPoint" />
          </mxGeometry>
        </mxCell>
      </root>
    </mxGraphModel>
  </diagram>
</mxfile>
